<?xml version="1.0" encoding="UTF-8"?>
<svg id="Layer_2" data-name="Layer 2" xmlns="http://www.w3.org/2000/svg" viewBox="0 0 403.25 121.56">
  <defs>
    <style>
      .cls-1 {
        fill: #fff;
      }
    </style>
  </defs>
  <g id="Layer_1-2" data-name="Layer 1">
    <g>
      <path class="cls-1" d="m202.83,59.3c-.06,12.78-8.18,20.29-20.23,20.29-13.96,0-22.7-9.98-22.7-21.07s8.86-21.13,22.08-21.13c7.4,0,13.06,2.69,18.44,7.79l-3.08,2.91c-4.54-4.43-10.03-6.78-15.24-6.78-9.64,0-17.99,7.4-17.99,17.1s7.79,17.49,18.61,17.49c7.62,0,14.46-4.54,15.58-12.67h-12.84v-3.92h17.38Z"/>
      <path class="cls-1" d="m212.43,63.78c0,6.45,5.04,12.11,11.71,12.11,6.11,0,11.88-4.6,11.88-11.99,0-6.89-5.16-12.11-11.83-12.11s-11.77,5.61-11.77,12m23.32-14.91h3.76v29.76h-3.76v-5.1c-3.25,3.92-7.34,5.83-11.99,5.83-8.69,0-15.25-7.23-15.25-15.69s6.73-15.58,15.36-15.58c4.82,0,8.91,2.08,11.88,6.22v-5.44Z"/>
      <path class="cls-1" d="m272.18,78.63h-3.81v-15.25c0-2.3-.23-4.2-.28-5.55-.17-3.25-2.8-6.05-6.73-6.05-2.63,0-5.27,1.29-6.95,3.48-2.13,2.75-2.52,6.28-2.52,10.76v12.61h-3.81v-29.76h3.81v5.1c2.64-3.81,5.94-5.89,10.2-5.89,4.54,0,7.79,2.35,9.42,7.17,2.64-4.76,6.56-7.17,10.93-7.17,6.17,0,10.14,4.43,10.14,12.89v17.66h-3.81v-16.25c0-2.19-.28-3.92-.34-5.04-.17-2.64-2.69-5.55-6.73-5.55-3.7,0-6.95,2.24-8.46,6.05-.95,2.41-1.06,5.04-1.06,7.79v13Z"/>
      <path class="cls-1" d="m328.13,63.67c0-6.45-5.1-12.11-11.77-12.11-6.11,0-11.83,4.54-11.83,12,0,6.89,5.1,12.16,11.83,12.16s11.77-5.66,11.77-12.05m-23.32,14.97h-3.81v-41.25h3.81v16.59c3.25-3.92,7.29-5.89,11.94-5.89,8.69,0,15.3,7.23,15.3,15.69s-6.73,15.64-15.41,15.64c-4.82,0-8.8-2.13-11.83-6.28v5.49Z"/>
      <path class="cls-1" d="m341.53,63.78c0,6.45,5.04,12.11,11.71,12.11,6.11,0,11.88-4.6,11.88-11.99,0-6.89-5.16-12.11-11.83-12.11s-11.77,5.61-11.77,12m23.32-14.91h3.76v29.76h-3.76v-5.1c-3.25,3.92-7.34,5.83-11.99,5.83-8.69,0-15.25-7.23-15.25-15.69s6.73-15.58,15.36-15.58c4.82,0,8.91,2.08,11.88,6.22v-5.44Z"/>
      <path class="cls-1" d="m381.05,54.2c3.08-4.04,6.78-6.11,11.15-6.11,6.5,0,11.04,4.48,11.04,13.84v16.7h-3.81v-16.2c0-7.01-2.19-10.87-7.96-10.87-3.2,0-5.83,1.4-7.85,4.04-2.24,2.91-2.58,5.83-2.58,10.54v12.5h-3.81v-29.76h3.81v5.32Z"/>
      <path class="cls-1" d="m95.82,95.55s-.05.04-.07.06c-.72.72-1.46,1.4-2.21,2.06-.24.22-.49.42-.74.63-.59.5-1.18.98-1.79,1.45-.23.17-.45.35-.68.52-.8.59-1.61,1.16-2.43,1.7-.22.14-.44.27-.66.41-.65.41-1.31.81-1.98,1.19-.27.15-.54.3-.81.45-.8.44-1.61.85-2.43,1.24-.08.04-.15.08-.23.12-.91.42-1.84.81-2.77,1.18-.23.09-.46.17-.69.26-.77.29-1.55.56-2.33.81-.19.06-.38.13-.58.19-.97.3-1.95.57-2.94.8-.09.02-.17.04-.26.06-.9.21-1.8.39-2.71.55-.22.04-.43.07-.65.11-.93.15-1.86.28-2.79.37-.06,0-.13.02-.19.02-1,.1-2.01.16-3.01.2-.23,0-.45.01-.68.02-.78.02-1.56.02-2.34,0-.27,0-.54,0-.8-.02-.95-.04-1.9-.09-2.85-.19-.24-.02-.47-.06-.71-.08-.7-.08-1.41-.17-2.11-.28-.42-.07-.83-.14-1.24-.21-.52-.09-1.04-.2-1.56-.31-.9-.19-1.8-.41-2.69-.65-.32-.09-.65-.17-.97-.26-.18-.05-.35-.12-.53-.17l13.23-13.23c9.11.35,18.33-2.94,25.27-9.88,11.34-11.34,12.95-28.78,4.82-41.85l-8.35,8.35v20.36h-14.01v-28.09l-.03-.03,22.58-22.58c2.06,1.5,4.03,3.17,5.89,5.03,19.21,19.22,19.21,50.49,0,69.71m-70.08.18c-19.21-19.22-19.21-50.49,0-69.71.02-.02.04-.04.07-.06.72-.72,1.46-1.4,2.21-2.06.24-.21.49-.42.74-.63.59-.5,1.18-.98,1.79-1.45.23-.17.45-.35.68-.52.8-.59,1.61-1.16,2.43-1.7.22-.14.44-.27.66-.41.65-.41,1.31-.81,1.99-1.19.27-.15.54-.3.81-.45.8-.43,1.61-.85,2.43-1.24.08-.04.15-.08.23-.11.91-.42,1.84-.81,2.77-1.18.23-.09.46-.17.69-.26.77-.29,1.55-.56,2.33-.81.19-.06.38-.13.58-.19.97-.3,1.95-.57,2.94-.8.09-.02.17-.04.26-.06.9-.21,1.8-.39,2.71-.55.22-.04.43-.07.65-.11.93-.15,1.86-.28,2.79-.37.06,0,.13-.02.19-.02,1-.1,2.01-.16,3.01-.2.22,0,.45-.01.68-.02.78-.02,1.56-.02,2.34,0,.27,0,.54,0,.8.02.95.04,1.9.09,2.85.19.24.02.47.06.71.09.7.08,1.41.17,2.11.28.42.06.83.14,1.24.21.52.09,1.04.2,1.56.31.9.19,1.8.41,2.69.66.32.09.65.17.97.26.18.05.35.12.53.17l-13.23,13.23c-9.11-.35-18.33,2.94-25.27,9.88-11.34,11.34-12.95,28.79-4.82,41.86l8.35-8.35v-20.36h14.01v28.09l.03.03-22.58,22.58c-2.06-1.5-4.03-3.17-5.89-5.03M60.78,0C27.21,0,0,27.21,0,60.78s27.21,60.78,60.78,60.78,60.78-27.21,60.78-60.78S94.35,0,60.78,0"/>
    </g>
  </g>
</svg>