<?xml version="1.0" encoding="UTF-8"?><svg id="Layer_2" xmlns="http://www.w3.org/2000/svg" viewBox="0 0 600.1 173.1"><defs><style>.cls-1{fill:#fff;}</style></defs><g id="layer"><g><path class="cls-1" d="M226.5,65.9c.4,1.5-.1,2.4-1.3,2.8l-11.5,3.4c-1.4,.4-2.1,0-2.6-1.4-1.8-5.9-5.6-9-12.7-9-10.8,0-14.5,6.4-14.5,15v19.8c0,8.6,3.6,15,14.5,15,8.9,0,13.6-4.1,13.6-13.2v-2.6h-11.7c-1,0-1.6-.5-1.6-1.7v-11c-.1-.8,.5-1.6,1.4-1.7h26.2c1.1,0,1.7,.5,1.7,1.6v16.4c0,15.6-11.5,27.4-29.4,27.4-21.2,0-31.1-12.6-31.1-29.8v-20.9c0-17.2,9.9-29.8,31.1-29.8,17.1,.1,24.8,9.9,27.9,19.7h0Zm58.3,19.5v38.4c.1,.8-.6,1.5-1.4,1.6h-11.9c-.8,.1-1.6-.5-1.7-1.4v-6.5c-3.4,5.7-9.5,9.2-16.2,9.1-11.1,0-18.2-7.1-18.2-18.1s6.7-17,23.1-18.2c3.5-.3,7.1-.3,10.7-.1v-4.3c0-5.7-3-8-8.1-8s-6.7,2.1-8.1,5.4c-.5,1.3-1,1.5-2.1,1.2l-11.7-3c-1.2-.3-1.3-1-1.1-1.8,1.6-8.4,9.6-14.6,23.6-14.6,14.8,.1,23.1,7.2,23.1,20.3Zm-15.6,20.2v-5.6c-3.1-.1-6.3,0-9.4,.3-6,.7-9.1,2.6-9.1,7.1,0,4.1,2.8,6.4,7.3,6.4,5.2,0,9.3-2.8,11.2-8.2h0Zm57.8-40.4c7.4,0,12.3,4.4,14.6,10.7,4.4-6.4,9.7-10.7,17.1-10.7,10.3,0,16.2,8.2,16.2,20.4v38.2c0,1-.9,1.6-1.9,1.6h-12.2c-1.1,0-1.9-.6-1.9-1.6v-35.4c0-5.3-2.3-8.5-6.5-8.5s-7.6,3.6-9.1,9.1v34.8c.1,.8-.6,1.5-1.4,1.6h-13.3c-1,0-1.4-.6-1.4-1.6v-35.4c0-5.3-2.4-8.5-6.5-8.5-4.5,0-7.7,3.8-9.1,9.3v34.7c.1,.8-.5,1.5-1.3,1.6h-13.2c-.8,.1-1.5-.5-1.6-1.3v-56.1c0-.8,.7-1.5,1.5-1.5h12.5c.8-.1,1.5,.5,1.6,1.4v6.8c3.4-5,8.5-9.6,15.9-9.6h0Zm114.8,1.3c.3,1.4-.1,2.4-1.4,2.8l-11.3,3.3c-1.4,.4-2.1-.1-2.6-1.4-1.6-5.3-4.4-9.6-12.2-9.6-9.7,0-12.8,6.4-12.8,15v19.8c0,8.6,3.5,15,12.8,15,8.3,0,11.5-4.7,12.8-10.5,.3-1.3,1.2-1.9,2.6-1.4l11.3,3.6c1.3,.4,1.7,1.4,1.4,2.8-2.7,11.5-11,20.9-28.2,20.9-19.4,0-29.1-12.6-29.1-29.8v-20.9c0-17.2,10-29.8,29.1-29.8,16.8,0,24.7,8.9,27.6,20.2Zm56.7,18.9v38.4c.1,.8-.6,1.5-1.4,1.6h-11.9c-.8,.1-1.6-.5-1.7-1.4v-6.5c-3.4,5.7-9.5,9.2-16.2,9.1-11.1,0-18.2-7.1-18.2-18.1s6.7-17,23.1-18.2c3.5-.3,7.1-.3,10.7-.1v-4.3c0-5.7-3-8-8.1-8s-6.7,2.1-8.1,5.4c-.5,1.3-1,1.5-2.1,1.2l-11.7-3c-1.2-.3-1.3-1-1.1-1.8,1.6-8.4,9.6-14.6,23.6-14.6,14.8,.1,23.1,7.2,23.1,20.3Zm-15.7,20.2v-5.6c-3.1-.1-6.3,0-9.4,.3-6,.7-9.1,2.6-9.1,7.1,0,4.1,2.8,6.4,7.3,6.4,5.3,0,9.3-2.8,11.2-8.2h0Zm61.2-38v11.4c0,1.4-.5,1.9-1.9,1.9h-1.7c-8.5,0-13.5,3.8-15.2,10.2v32.8c.1,.8-.5,1.5-1.3,1.6h-13.5c-.8,0-1.4-.7-1.4-1.5v-56c0-.8,.6-1.5,1.3-1.5h12.3c1.3,0,1.6,.8,1.6,1.7v7.9c2.8-5.2,8-10.3,17.1-10.3,2.3,0,2.7,.3,2.7,1.8h0Zm20.9,33.3v2.2c0,6.2,3.2,10.5,10.7,10.5s9.4-2.8,11.3-6.3c1-1.6,1.4-1.8,3.1-1.1l8.4,4.3c1.7,.9,1.8,1.7,1.1,3.3-3.6,8.2-12.7,12.9-23.9,12.9-17,0-26-10.1-26-23.9v-13.6c0-13.4,8.4-23.9,25.8-23.9s24.7,10.5,24.7,23.6v9.4c0,1.6-.5,2.7-2.8,2.7l-32.4-.1Zm0-12.5v2h20.5v-2c0-5.7-3.2-10.2-10.2-10.2s-10.3,4.5-10.3,10.2h0Z"/><path class="cls-1" d="M73.6,0H2.2C1,0,0,1,0,2.2V106c0,37,30,67.1,67.1,67.1h6.5c37,0,67-30,67-67.1v-38.9C140.7,30,110.7,0,73.6,0h0Zm45.6,107.1c0,25.2-18.6,44.3-47.4,44.3-34.2,0-50.2-20.3-50.2-48.1v-33.7c0-27.8,16-48.1,50.2-48.1,27.7,0,40.2,15.8,45.2,31.6,.7,2.4-.2,3.8-2.1,4.5l-18.6,5.5c-2.2,.7-3.4,0-4.1-2.2-2.9-9.5-9.1-14.6-20.4-14.6-17.5,0-23.4,10.3-23.4,24.2v32c0,13.9,5.8,24.2,23.4,24.2,14.4,0,22-6.7,22-21.3v-4.1h-19.2c-1.5,0-2.6-.9-2.6-2.7v-17.7c0-1.7,1-2.8,2.6-2.8h41.9c1.7,0,2.7,.9,2.7,2.6v26.4Z"/></g></g></svg>