<svg width="117" height="35" viewBox="0 0 117 35" fill="none" xmlns="http://www.w3.org/2000/svg">
<g clip-path="url(#clip0_127917_603553)">
<path d="M26.4256 4.00483C25.6673 5.59601 24.7682 7.11849 23.7526 8.56173L23.4963 8.50055C17.3042 4.30371 8.84279 7.04778 6.15668 13.9466C3.24859 21.416 8.79486 29.4823 16.8471 29.6142C25.583 29.7571 31.3008 20.5946 27.419 12.9025L27.3837 12.6177C27.4034 12.5324 27.4245 12.4477 27.4528 12.3654C27.4811 12.2832 27.5093 12.2029 27.5502 12.1292C28.3312 10.7216 29.1248 9.31946 29.9537 7.9389C30.0557 7.79748 30.1742 7.67111 30.3089 7.56029L30.5839 7.61244L107.546 7.60843C112.336 7.98804 116.185 11.8329 116.842 16.5056C117.676 22.4451 113.491 28.0521 107.395 28.4934L30.4346 28.4903C30.3226 28.5114 29.813 29.1994 29.6793 29.3429C23.4857 35.9764 13.4254 36.9342 6.27979 31.1437C-2.39002 24.1175 -1.95764 10.863 7.0946 4.36439C12.7675 0.29191 20.6074 0.114889 26.4256 4.00483ZM30.8639 27.8896L106.79 27.8926C113.395 27.7682 117.756 21.3529 115.904 15.1331C114.742 11.2311 111.23 8.3797 107.093 8.20869L30.8644 8.2112L31.9497 9.96235C34.7498 15.0388 34.7094 21.3393 31.8311 26.3711C31.5334 26.8916 31.1863 27.3846 30.8644 27.8891L30.8639 27.8896Z" fill="#FEFEFE"/>
<path d="M26.4257 4.00347C26.9681 3.07223 27.5291 2.14901 28.0397 1.19922H33.9906L30.309 7.55842C29.2652 9.20276 28.3636 10.9379 27.3838 12.6158L27.404 12.7251C24.9732 16.8944 22.5317 21.0616 20.0797 25.2269C18.161 25.2866 16.0556 25.3177 14.1445 25.2464L14.1208 25.1341L14.1006 24.9666L17.0415 19.8441C17.0667 19.7678 17.1146 19.7613 17.1969 19.7759C17.4486 19.2553 17.7024 18.7353 17.9925 18.2348C19.5843 15.4877 21.1837 12.7427 22.7921 10.0046C22.9384 9.75589 23.0973 9.51417 23.2578 9.27347C23.4182 9.03276 23.5847 8.79506 23.7532 8.55937C24.6427 7.0404 25.5397 5.52394 26.4262 4.00246L26.4257 4.00347Z" fill="#CBCBCB"/>
<path d="M17.197 19.7785L14.1209 25.1363L8.62402 14.8711H14.5497L17.197 19.7785Z" fill="#FEFEFE"/>
<path d="M60.971 15.0215L62.3826 18.9771L63.7696 15.0215H66.7201V21.1305H64.8039V16.6237L63.1162 21.134L61.4821 21.1234L59.8615 16.6237V21.1305H57.9448V15.0215H60.971Z" fill="#FEFEFE"/>
<path d="M47.758 17.0233H45.3877C45.3675 17.0233 45.3312 16.7786 45.2363 16.6482C44.7348 15.9596 43.3106 16.0549 42.7142 16.5965C42.0013 17.2444 41.9927 18.8191 42.6627 19.5041C43.413 20.2713 45.422 20.142 45.6909 18.9259H44.4301V17.6993C44.4301 17.6938 44.5002 17.624 44.5058 17.624H47.6828C47.6883 17.624 47.7585 17.6938 47.7585 17.6993V21.1294H46.8256C46.76 21.1294 46.5718 20.6254 46.5476 20.5286C46.5143 20.504 46.1314 20.8059 46.0451 20.8545C44.4654 21.7462 41.0715 21.4613 40.294 19.5527C39.3712 17.2871 40.6421 15.1904 43.0497 14.876C44.7308 14.6563 47.4447 14.9743 47.759 17.0228L47.758 17.0233Z" fill="#FEFEFE"/>
<path d="M74.9403 15.0215V16.3735H70.8552V17.4251H74.688V18.7269H70.8552V19.7785H74.9403V21.1305H68.7876V15.0215H74.9403Z" fill="#FEFEFE"/>
<path d="M48.918 21.1301L51.5652 15.0707L54.0389 15.0176L56.7351 21.1301H54.5162L54.1302 20.1261C53.2514 20.1502 52.3513 20.0885 51.485 20.1582L51.1379 21.1301H48.919H48.918ZM53.6585 18.8268L52.8265 16.5732L51.9946 18.8268H53.659H53.6585Z" fill="#FEFEFE"/>
<path d="M103.837 15.0215V18.2761L107.393 15.0215H108.174L105.452 17.5504L108.275 21.1305H107.519C107.512 21.1305 107.512 21.0517 107.469 21.0066C106.6 20.0718 105.873 18.932 105.017 17.9782L103.837 19.0528V21.131H103.232V15.022H103.837V15.0215Z" fill="#FEFEFE"/>
<path d="M94.6589 15.0215V15.5225H91.0278V17.7259H94.4571C94.4535 17.8197 94.4919 18.2269 94.3814 18.2269H91.0278V20.5803H94.7093V21.131H90.4229V15.022H94.6589V15.0215Z" fill="#FEFEFE"/>
<path d="M84.1191 15.0215V17.6001C84.1191 17.6056 84.1892 17.6753 84.1948 17.6753H87.7502V15.0215H88.3551V21.1305H87.7502V18.1763H84.1191V21.1305H83.5142V15.0215H84.1191Z" fill="#FEFEFE"/>
<path d="M101.417 16.8736C101.31 16.8531 100.859 16.9047 100.817 16.8686C100.807 16.8601 100.777 16.673 100.75 16.6093C100.372 15.7062 99.6479 15.3376 98.6671 15.4193C96.0289 15.64 95.9562 20.4963 98.7256 20.7224C99.9622 20.8232 100.804 19.9592 100.915 18.7782L101.518 18.7757C101.372 20.6076 99.8578 21.6261 98.0662 21.1261C95.6036 20.4391 95.3917 16.4073 97.5188 15.2303C98.9859 14.4184 101.246 15.0437 101.417 16.8726V16.8736Z" fill="#FEFEFE"/>
<path d="M81.6985 16.8736C81.5915 16.8531 81.14 16.9047 81.0981 16.8686C81.0865 16.8586 81.0476 16.646 81.0169 16.5738C80.6395 15.6927 79.9074 15.3376 78.9508 15.4224C76.4791 15.641 76.3081 19.8308 78.3933 20.581C79.8216 21.0945 81.0688 20.2456 81.1965 18.7792L81.7994 18.7767C81.6657 20.6061 80.1299 21.6261 78.3474 21.1271C76.074 20.4913 75.7178 17.0005 77.3605 15.5462C78.7601 14.3071 81.4972 14.8341 81.6985 16.8736Z" fill="#FEFEFE"/>
</g>
<defs>
<clipPath id="clip0_127917_603553">
<rect width="117" height="34" fill="white" transform="translate(0 1)"/>
</clipPath>
</defs>
</svg>
