<?xml version="1.0" encoding="UTF-8"?><svg id="Layer_2" xmlns="http://www.w3.org/2000/svg" viewBox="0 0 635.1 219.2"><defs><style>.cls-1{fill:#fff;}</style></defs><g id="Layer_3"><g><g><circle class="cls-1" cx="109.7" cy="109.5" r="48.3"/><polygon class="cls-1" points="109.7 48.3 131.6 26.4 131.6 0 87.7 0 87.7 26.4 109.7 48.3"/><polygon class="cls-1" points="79.1 56.6 87.1 26.5 73.9 3.5 35.8 25.6 49 48.4 79.1 56.6"/><polygon class="cls-1" points="56.6 78.9 48.6 48.9 25.6 35.7 3.7 73.7 26.7 87 56.6 78.9"/><polygon class="cls-1" points="48.4 109.5 26.5 87.6 0 87.6 0 131.5 26.5 131.5 48.4 109.5"/><polygon class="cls-1" points="56.6 140.1 26.7 132.1 3.7 145.3 25.6 183.4 48.6 170.2 56.6 140.1"/><polygon class="cls-1" points="78.9 162.6 49 170.6 35.8 193.6 73.9 215.4 87.1 192.5 78.9 162.6"/><polygon class="cls-1" points="109.7 170.8 87.7 192.7 87.7 219.2 131.6 219.2 131.6 192.7 109.7 170.8"/><polygon class="cls-1" points="140.3 162.6 132.2 192.5 145.5 215.4 183.5 193.6 170.3 170.6 140.3 162.6"/><polygon class="cls-1" points="162.6 140.1 170.6 170.2 193.6 183.4 215.7 145.3 192.7 132.1 162.6 140.1"/><polygon class="cls-1" points="170.9 109.5 192.8 131.5 219.2 131.5 219.2 87.6 192.8 87.6 170.9 109.5"/><polygon class="cls-1" points="162.6 78.9 192.7 87 215.7 73.7 193.6 35.7 170.8 48.9 162.6 78.9"/><polygon class="cls-1" points="140.3 56.6 170.3 48.6 183.5 25.6 145.5 3.5 132.2 26.5 140.3 56.6"/></g><g><path class="cls-1" d="M283.6,3.1c16.3,0,24.4,8,24.4,8l-7.9,14.5s-5.7-5.7-15.1-5.7c-11.8,0-16.5,7.2-16.5,15.3,0,9.6,6.3,16.4,15.9,16.4,5.9,0,10.5-3.1,11-3.9v-2.8h-8v-13.5h23.6v35.4h-15.1v-2.7c0-1,.1-1.8,.2-2h-.4c-.8,1.1-5.8,5.8-15.9,5.8-17,0-31-12.7-31-32.3,.3-18.4,13.9-32.5,34.8-32.5Z"/><path class="cls-1" d="M388.7,5.4h26.7c13.5,0,22.7,7.3,22.7,20.2,0,7.1-3.6,13.7-9.4,17.2v.2c.2,.3,1.4,1.9,2.7,4.2l10.8,19.7h-20.2l-9.6-19.3h-5.2v19.3h-18.6V5.4h.1Zm24.1,27.9c4.2,0,6.5-2.5,6.5-6.5s-1.6-6.4-7.2-6.4h-4.9v12.8l5.6,.1h0Z"/><path class="cls-1" d="M446.8,5.4h25c19,0,31.1,11.2,31.1,30.6s-12.1,30.9-31.1,30.9h-25V5.4Zm23.8,46.3c8.3,0,13.2-5.3,13.2-15.7s-5.2-15.5-13.2-15.5h-5.2v31.2h5.2Z"/><path class="cls-1" d="M580.3,5.4h17.7l15.2,25.2c2.5,4.2,4.4,9.4,4.4,9.4h.3s-.7-5.5-.7-9.4V5.4h17.9v61.5h-18l-15.3-26.4c-2.2-3.7-4.4-9.3-4.4-9.3h-.3s.7,5.4,.7,9.3v26.4h-17.6l.1-61.5h0Z"/><path class="cls-1" d="M253.8,81h20.3l7.7,24.8c1.2,3.9,2.5,9.9,2.5,9.9h.3s1.3-5.9,2.5-9.9l7.7-24.8h20.2l4.5,61.5h-17.3l-1.7-25.6c-.3-4.6,0-9.9,0-9.9h-.3s-1.5,6-2.8,9.9l-5.6,17.5h-14.8l-5.7-17.5c-1.2-3.9-2.8-9.9-2.8-9.9h-.3s.2,5.2-.1,9.9l-1.6,25.6h-17.5l4.8-61.5Z"/><path class="cls-1" d="M357.1,79.5c20.2,0,33.7,13.8,33.7,32s-13.5,32.8-33.7,32.8-33.7-14.1-33.7-32.8,13.5-32,33.7-32Zm0,48.1c8.2,0,14.2-6.5,14.2-16s-5.9-15.3-14.2-15.3-14.2,6.2-14.2,15.3,6,16,14.2,16Z"/><path class="cls-1" d="M349.7,4.2c20.2,0,33.7,13.8,33.7,32s-13.5,32.8-33.7,32.8-33.7-14.1-33.7-32.8c.1-18.2,13.5-32,33.7-32Zm0,48.1c8.2,0,14.2-6.5,14.2-16s-5.9-15.3-14.2-15.3-14.2,6.2-14.2,15.3,6,16,14.2,16Z"/><path class="cls-1" d="M541,4.2c20.2,0,33.7,13.8,33.7,32s-13.5,32.8-33.7,32.8-33.7-14.1-33.7-32.8,13.5-32,33.7-32Zm0,48.1c8.2,0,14.2-6.5,14.2-16s-5.9-15.3-14.2-15.3-14.2,6.2-14.2,15.3,5.9,16,14.2,16Z"/><path class="cls-1" d="M428.1,79.5c20.2,0,33.7,13.8,33.7,32s-13.5,32.8-33.7,32.8-33.7-14.1-33.7-32.8,13.6-32,33.7-32Zm0,48.1c8.2,0,14.2-6.5,14.2-16s-5.9-15.3-14.2-15.3-14.2,6.2-14.2,15.3,6,16,14.2,16Z"/><path class="cls-1" d="M468,81h25c19,0,31.1,11.2,31.1,30.6s-12.1,30.9-31.1,30.9h-25v-61.5Zm23.8,46.4c8.3,0,13.2-5.3,13.2-15.7s-5.2-15.5-13.2-15.5h-5.2v31.2s5.2,0,5.2,0Z"/><path class="cls-1" d="M540.5,118.2l-20.3-37.1h19.9l5.9,12.7c1.7,3.9,3.5,9.3,3.5,9.3h.3s1.8-5.4,3.6-9.3l5.8-12.7h20l-20,37.1v24.3h-18.6l-.1-24.3h0Z"/></g><path class="cls-1" d="M354.1,179.7c0-2.6-1.3-4.4-3.7-4.4h-3.2v9h3.7c1.9,0,3.2-2,3.2-4.6Z"/><path class="cls-1" d="M351.4,189.2h-4.2v10.3h3.5c3.1,0,4.5-2.2,4.5-5.1,0-3.1-1.5-5.2-3.8-5.2Z"/><path class="cls-1" d="M374.3,176.1h-.1s-.5,3.4-1,5.4l-2.3,9.4h6.6l-2.2-9.4c-.5-2-1-5.4-1-5.4Z"/><path class="cls-1" d="M323.3,175.2c-4.9,0-7.9,4.7-7.9,12s2.9,12.5,7.9,12.5,7.8-4.9,7.8-12.4c.1-7.5-2.9-12.1-7.8-12.1Z"/><path class="cls-1" d="M535.8,175.2c-4.9,0-7.9,4.7-7.9,12s2.9,12.5,7.9,12.5,7.8-4.9,7.8-12.4-2.9-12.1-7.8-12.1Z"/><path class="cls-1" d="M605.7,157.4H248.4v57.6h358.4l27.7-29.2-28.8-28.4Zm-317.4,47.4h-4.7v-1.3c0-.6,.1-1.3,.1-1.3h-.1c-1.4,1.9-4.2,3.2-7.3,3.2-7.1,0-13.7-6.6-13.7-17.9s5.9-18.1,15-18.1c3.2,0,6.8,1.1,9.2,3l-2.5,5c-1.6-1.5-3.9-2.5-6.4-2.5-5.9,0-9.2,5.1-9.2,12.2,0,7.5,3.7,12.3,8.7,12.3,2.2,0,4.3-.8,5.6-2.5v-5.5h-4v-5.3h9.2l.1,18.7h0Zm21.4,0h-17.2v-34.8h6v29.5h11.2v5.3Zm13.6,.6c-8.6,0-14-7.5-14-18.2s5.4-17.7,14-17.7,14,7.3,14,17.8c.1,10.5-5.4,18.1-14,18.1Zm27.5-.6h-9.6v-34.8h9.4c5.5,0,9.6,3.2,9.6,9,0,3.3-1.5,6.1-4.1,7.4v.1c3.6,1.1,5.2,4.5,5.2,8.2,0,7-4.3,10.1-10.5,10.1Zm29.8,0l-2.2-9h-8.5l-2.1,9h-6l9.2-34.8h6.5l9.2,34.8h-6.1Zm25.6,0h-17.2v-34.8h6v29.5h11.2v5.3Zm32.9,0h-6.2l-9-19.7c-.9-2.2-1.8-5.3-1.8-5.3h-.2s.3,3.3,.3,5.3v19.7h-5.6v-34.8h6.3l9,19.7c.9,2.1,1.8,5.3,1.8,5.3h.2s-.3-3.3-.3-5.3v-19.7h5.6l-.1,34.8h0Zm22.5,0h-17.1v-34.8h16.5v5.3h-10.6v9.3h8.5v5.3h-8.5v9.6h11.2v5.3Zm23.7-29.5h-8.4v29.5h-5.9v-29.5h-8.4v-5.3h22.7v5.3h0Zm29,29.5h-6.9l-3.6-20.5c-.3-2.3-.5-4.6-.5-4.6h-.2s-.1,2.3-.5,4.6l-3.7,20.5h-6.9l-6.4-34.8h5.9l3.8,24c.3,1.7,.3,3.9,.3,3.9h.2s.1-2.2,.4-3.9l4.2-24h5.7l4,24c.3,1.7,.4,3.9,.4,3.9h.2s.1-2.2,.3-3.9l3.8-24h5.8l-6.3,34.8Zm21.5,.6c-8.6,0-14-7.5-14-18.2s5.4-17.7,14-17.7,14,7.3,14,17.8-5.5,18.1-14,18.1Zm32.9-.6l-5.3-13h-3.8v13h-6v-34.8h10.1c1.3,0,3.1,.3,4.6,1.1,3.1,1.5,5.2,4.8,5.2,9.3s-2.5,8-5.1,9.6v.1s.4,.6,1,1.9l5.8,12.9h-6.5v-.1Zm24.2,0l-6.4-15.2h-2.5v15.2h-6v-34.8h6v14.1h2.5l6.3-14.1h6.4l-7.4,16.6v.1l7.8,18.1h-6.7Z"/><path class="cls-1" d="M565.6,176.2c-.8-.5-1.9-.8-2.7-.8h-3.3v11.2h3.2c2.4,0,4.7-2.1,4.7-5.7,0-2.1-.7-3.8-1.9-4.7Z"/></g></g></svg>